<?xml version="1.0" encoding="utf-8"?>
<!-- Generator: Adobe Illustrator 25.4.1, SVG Export Plug-In . SVG Version: 6.00 Build 0)  -->
<svg version="1.1" id="レイヤー_1" xmlns="http://www.w3.org/2000/svg" xmlns:xlink="http://www.w3.org/1999/xlink" x="0px"
	 y="0px" viewBox="0 0 151 28.7" style="enable-background:new 0 0 151 28.7;" xml:space="preserve">
<style type="text/css">
	.st0{fill:#444444;}
	.st1{fill:#D2261D;}
</style>
<g transform="translate(0 0)">
	<g transform="translate(89.805 10.287)">
		<path class="st0" d="M2.9,10.2c0.1,1.3,1.4,1.9,2.8,1.9c0.9,0,1.8-0.1,2.7-0.4l0.4,2.1c-1.1,0.4-2.4,0.6-3.6,0.6
			c-3.4,0-5.3-1.9-5.3-5c0-2.5,1.6-5.3,5-5.3c3.2,0,4.4,2.5,4.4,4.9c0,0.4,0,0.8-0.1,1.2L2.9,10.2z M6.6,8.1c0.1-1-0.6-1.9-1.6-2
			c-0.1,0-0.1,0-0.2,0c-1.1,0.1-1.9,0.9-1.9,2H6.6z"/>
		<path class="st0" d="M11.3,7.5c0-1.2,0-2.3-0.1-3.2h2.7L14,5.7H14c0.7-1,1.8-1.6,3.1-1.6c2,0,3.5,1.3,3.5,4.2v5.9h-3.1V8.7
			c0-1.3-0.4-2.1-1.6-2.1c-0.7,0-1.3,0.5-1.6,1.2c-0.1,0.2-0.1,0.5-0.1,0.8v5.7h-3.1V7.5z"/>
		<path class="st0" d="M32.6,4.3c0,0.6-0.1,1.5-0.1,2.9v5.5c0,1.9-0.4,3.5-1.5,4.5c-1.2,0.9-2.6,1.3-4,1.2c-1.2,0-2.5-0.2-3.6-0.8
			l0.6-2.3c0.9,0.5,1.9,0.7,2.9,0.7c1.3,0.1,2.5-0.8,2.6-2.1c0-0.2,0-0.3,0-0.5v-0.6h0c-0.6,0.8-1.6,1.3-2.7,1.3
			c-2.4,0-4.2-2-4.2-4.8c0-3.2,2.1-5.2,4.5-5.2c1.1-0.1,2.1,0.5,2.7,1.4h0l0.1-1.2L32.6,4.3z M29.4,8.3c0-0.2,0-0.4-0.1-0.6
			c-0.2-0.8-0.9-1.4-1.7-1.4c-1.1,0-2,1-2,2.8c0,1.5,0.7,2.6,2,2.6c0.8,0,1.4-0.5,1.6-1.3c0.1-0.3,0.1-0.5,0.1-0.8L29.4,8.3z"/>
		<path class="st0" d="M38.1,1.6c0,0.9-0.7,1.5-1.5,1.5c0,0-0.1,0-0.1,0c-0.9,0-1.5-0.7-1.5-1.6S35.6,0,36.5,0
			c0.9-0.1,1.6,0.6,1.6,1.4C38.1,1.5,38.1,1.5,38.1,1.6z M34.9,14.2V4.3H38v9.9H34.9z"/>
		<path class="st0" d="M40.5,7.5c0-1.2,0-2.3-0.1-3.2h2.7l0.1,1.4h0.1c0.7-1,1.8-1.6,3.1-1.6c2,0,3.5,1.3,3.5,4.2v5.9h-3.1V8.7
			c0-1.3-0.4-2.1-1.6-2.1c-0.7,0-1.3,0.5-1.6,1.2c-0.1,0.2-0.1,0.5-0.1,0.8v5.7h-3.1L40.5,7.5z"/>
		<path class="st0" d="M54.7,10.2c0.1,1.3,1.4,1.9,2.8,1.9c0.9,0,1.8-0.1,2.7-0.4l0.4,2.1c-1.1,0.4-2.4,0.6-3.6,0.6
			c-3.4,0-5.3-1.9-5.3-5c0-2.5,1.6-5.3,5-5.3c3.2,0,4.4,2.5,4.4,4.9c0,0.4,0,0.8-0.1,1.2L54.7,10.2z M58.3,8.1c0.1-1-0.6-1.9-1.6-2
			c-0.1,0-0.1,0-0.2,0c-1.1,0.1-1.9,0.9-1.9,2H58.3z"/>
	</g>
	<path class="st0" d="M10.2,27C4.6,27,0,22.5,0,16.8h3.6c0,3.7,3,6.6,6.7,6.5c3.6,0,6.5-2.9,6.5-6.5h3.6C20.4,22.5,15.9,27,10.2,27z
		"/>
	<path class="st1" d="M27,6.6c-3.4,0-6.5,1.7-8.4,4.4C15.4,6.4,9.1,5.2,4.5,8.4C4.2,8.6,3.9,8.8,3.6,9.1V0H0v16.8h3.6
		c0-3.7,3-6.6,6.7-6.5c3.6,0,6.5,2.9,6.5,6.5h3.6c0-3.7,3-6.6,6.6-6.6s6.6,3,6.6,6.6v8.4h3.6v-8.4C37.2,11.2,32.7,6.6,27,6.6z"/>
	<path class="st0" d="M46.6,10.4h3V16h0c0.7-0.9,1.8-1.5,3-1.4c2.3,0,4,1.9,4,4.9c0,3.5-2.2,5.3-4.5,5.3c-1.2,0.1-2.3-0.5-2.9-1.6h0
		l-0.1,1.4h-2.6c0-0.6,0.1-1.8,0.1-2.9L46.6,10.4z M49.7,20.4c0,0.2,0,0.4,0.1,0.5c0.2,0.8,0.9,1.4,1.8,1.4c1.3,0,2.1-1,2.1-2.8
		c0-1.5-0.7-2.7-2.1-2.7c-0.9,0-1.6,0.6-1.8,1.5c0,0.2-0.1,0.4-0.1,0.6V20.4z"/>
	<path class="st0" d="M58.5,10.4h3v14.2h-3V10.4z"/>
	<path class="st0" d="M72.3,22.2c0,0.8,0,1.6,0.2,2.4h-2.7l-0.2-1h-0.1c-0.7,0.8-1.7,1.2-2.8,1.2c-1.7,0.1-3.1-1.2-3.2-2.8
		c0-0.1,0-0.1,0-0.2c0-2.5,2.3-3.7,5.7-3.7v-0.1c0-0.5-0.3-1.3-1.8-1.3c-0.9,0-1.9,0.3-2.7,0.7l-0.6-2c1.2-0.6,2.5-0.9,3.8-0.9
		c3.3,0,4.3,1.9,4.3,4.2L72.3,22.2z M69.3,20c-1.6,0-2.8,0.4-2.8,1.5c0,0.6,0.4,1.1,1,1.2c0.1,0,0.1,0,0.2,0c0.7,0,1.3-0.5,1.6-1.1
		c0-0.2,0.1-0.3,0.1-0.5L69.3,20z"/>
	<path class="st0" d="M74.6,21.9c0.8,0.4,1.7,0.7,2.6,0.7c0.9,0,1.3-0.3,1.3-0.8c0-0.5-0.3-0.8-1.4-1.1c-2-0.7-2.8-1.8-2.8-2.9
		c0-1.8,1.6-3.2,4-3.2c0.9,0,1.9,0.2,2.7,0.6l-0.5,2.1c-0.7-0.3-1.4-0.5-2.1-0.6c-0.7,0-1.2,0.3-1.2,0.8s0.4,0.7,1.6,1.1
		c1.9,0.6,2.6,1.6,2.6,3c0,1.8-1.4,3.2-4.2,3.2c-1.1,0-2.2-0.2-3.2-0.7L74.6,21.9z"/>
	<path class="st0" d="M86.4,12.2v2.6h2.2V17h-2.2v3.5c0,1.2,0.3,1.7,1.2,1.7c0.3,0,0.6,0,0.9-0.1l0,2.3c-0.6,0.2-1.3,0.3-2,0.3
		c-0.8,0-1.7-0.3-2.3-0.8c-0.6-0.8-0.9-1.9-0.8-2.9v-4h-1.3v-2.2h1.3V13L86.4,12.2z"/>
</g>
</svg>
